# xmcd CD database file
#
# Track frame offsets:
#	150
#	24322
#	43925
#
# Disc length: 842 seconds
#
# Revision: 2
# Processed by: cddbd v1.5PL3 Copyright (c) Steve Scherf et al.
# Submitted via: CDex 1.50
#
DISCID=1d034803
DTITLE=day after tomorrow - DAY STAR
DYEAR=2003
DGENRE=Pop
TTITLE0=CURRENT
TTITLE1=イタズラなKISS
TTITLE2=Smartly
EXTD=YEAR: 2003
EXTT0=
EXTT1=
EXTT2=
PLAYORDER=
